<?xml version="1.0" standalone="no"?>
<!DOCTYPE svg PUBLIC "-//W3C//DTD SVG 20010904//EN"
 "http://www.w3.org/TR/2001/REC-SVG-20010904/DTD/svg10.dtd">
<svg version="1.0" xmlns="http://www.w3.org/2000/svg"
 width="519.000000pt" height="519.000000pt" viewBox="0 0 519.000000 519.000000"
 preserveAspectRatio="xMidYMid meet">
<metadata>
Created by potrace 1.14, written by Peter Selinger 2001-2017
</metadata>
<g transform="translate(0.000000,519.000000) scale(0.100000,-0.100000)"
fill="#000000" stroke="none">
<path d="M613 4950 c-213 -31 -446 -222 -524 -429 -50 -133 -49 -109 -49
-1544 0 -871 4 -1365 10 -1407 32 -201 166 -392 333 -473 137 -67 140 -67 808
-67 473 0 599 -3 599 -12 0 -7 -27 -92 -59 -188 l-59 -175 -173 -5 c-167 -5
-176 -6 -221 -32 -56 -33 -102 -87 -124 -144 -34 -91 20 -210 118 -258 l54
-26 1289 2 1290 3 40 22 c76 41 125 111 125 179 0 69 -19 120 -62 169 -67 76
-99 85 -289 85 l-165 0 -26 72 c-84 234 -98 275 -98 290 0 22 -58 20 620 18
617 -1 654 2 787 66 59 28 96 55 153 113 84 85 124 156 159 284 21 77 21 82
21 1463 0 1371 0 1387 -21 1467 -43 171 -132 307 -268 411 -56 43 -79 55 -181
98 l-55 23 -1990 1 c-1094 1 -2013 -2 -2042 -6z m3842 -421 c73 -27 104 -47
173 -113 56 -53 87 -104 118 -196 18 -53 19 -103 19 -1155 l0 -1100 -2160 0
-2160 0 -3 1083 c-2 1195 -5 1134 60 1269 37 75 119 158 199 199 l54 29 550 6
c303 3 1122 5 1820 3 l1271 -3 59 -22z m-1742 -2885 c57 -41 87 -95 87 -162 0
-61 -15 -94 -62 -139 -153 -146 -414 29 -319 215 25 50 78 100 116 112 56 17
132 6 178 -26z"/>
<path d="M1391 4022 l-64 -3 7 -91 c3 -50 6 -200 6 -334 l0 -243 78 2 77 2 3
133 3 132 129 0 129 0 3 -132 3 -133 78 -3 77 -3 0 336 0 335 -75 0 -75 0 0
-114 c0 -63 -3 -121 -6 -130 -5 -13 -27 -16 -135 -16 -96 0 -129 3 -131 13 -2
14 -4 82 -6 178 -2 77 -1 76 -101 71z"/>
<path d="M2569 3748 c-1 -150 -2 -300 -3 -333 l-1 -60 78 -3 77 -3 0 336 0
335 -75 0 -75 0 -1 -272z"/>
<path d="M2847 4013 c-9 -8 -9 -214 0 -466 l6 -197 74 0 73 0 0 335 0 335 -73
0 c-41 0 -77 -3 -80 -7z"/>
<path d="M2135 3809 c-79 -40 -135 -131 -135 -220 0 -93 63 -190 144 -223 78
-32 248 -13 290 33 14 16 12 20 -28 60 -42 41 -45 42 -67 28 -37 -23 -76 -29
-119 -17 -41 11 -77 50 -65 70 4 6 66 10 166 10 l159 0 0 38 c0 139 -104 242
-245 242 -41 0 -73 -6 -100 -21z m189 -124 c15 -14 26 -31 23 -38 -5 -15 -176
-22 -190 -8 -6 6 1 20 21 40 41 41 105 44 146 6z"/>
<path d="M3245 3813 c-170 -69 -209 -260 -79 -388 127 -124 313 -92 396 69 59
113 -6 267 -137 322 -45 18 -130 17 -180 -3z m117 -122 c48 -19 68 -48 68
-102 0 -43 -5 -55 -29 -80 -33 -32 -58 -36 -101 -14 -41 21 -60 53 -60 101 0
47 28 90 63 97 12 2 25 5 29 6 4 0 17 -3 30 -8z"/>
<path d="M3685 3495 c-26 -25 -32 -63 -15 -96 8 -14 21 -19 50 -19 52 0 53
-24 5 -71 -19 -19 -35 -37 -35 -41 0 -5 20 -8 45 -8 55 0 109 43 126 100 10
33 9 44 -11 84 -36 76 -116 100 -165 51z"/>
<path d="M2846 3214 c-3 -9 -6 -157 -6 -330 l0 -314 80 0 80 0 0 330 0 330
-74 0 c-58 0 -75 -3 -80 -16z"/>
<path d="M3453 3222 l-43 -3 0 -108 c0 -59 -3 -110 -6 -114 -4 -3 -20 1 -36 9
-65 34 -184 10 -230 -45 -57 -68 -77 -154 -54 -233 32 -110 112 -175 207 -166
32 3 58 13 72 27 29 26 47 27 47 1 0 -18 7 -20 75 -20 l75 0 0 324 0 324 -32
3 c-18 2 -52 3 -75 1z m-86 -356 c25 -21 28 -31 28 -81 0 -48 -4 -60 -25 -77
-29 -24 -90 -20 -121 8 -25 23 -34 77 -19 115 26 61 88 77 137 35z"/>
<path d="M1215 3160 c-4 -6 3 -34 14 -63 11 -29 30 -86 42 -127 11 -41 43
-142 70 -225 27 -82 49 -155 49 -161 0 -7 7 -15 16 -18 28 -11 101 -6 111 7 5
6 25 63 43 125 24 83 37 112 48 110 9 -2 29 -47 53 -117 20 -62 43 -118 51
-122 16 -11 89 -11 103 -1 6 4 30 77 54 162 58 210 110 379 127 413 l15 27
-81 0 c-44 0 -80 -1 -80 -2 0 -2 -16 -57 -36 -123 -20 -66 -39 -136 -43 -155
-3 -19 -13 -36 -21 -38 -12 -2 -20 17 -33 80 -49 229 -50 233 -81 236 -71 9
-72 7 -126 -187 -27 -96 -43 -131 -54 -120 -5 5 -72 238 -81 282 -5 27 -7 27
-80 27 -40 0 -77 -5 -80 -10z"/>
<path d="M3720 3002 c0 -87 2 -161 4 -163 2 -2 34 -2 70 -1 l66 4 0 159 0 159
-70 0 -70 0 0 -158z"/>
<path d="M2060 2998 c-59 -30 -106 -93 -120 -163 -15 -70 -6 -123 29 -175 44
-65 93 -92 176 -98 85 -5 133 8 181 51 68 59 101 171 74 252 -16 50 -75 114
-125 136 -59 27 -158 25 -215 -3z m171 -137 c28 -28 33 -43 30 -86 -5 -60 -57
-95 -119 -79 -29 7 -41 17 -56 47 -50 104 65 197 145 118z"/>
<path d="M2675 2989 c-38 -33 -65 -33 -65 1 0 18 -6 20 -70 20 l-70 0 0 -220
0 -220 74 0 74 0 3 108 c5 130 16 152 94 187 l55 24 0 65 0 66 -30 0 c-19 0
-42 -11 -65 -31z"/>
<path d="M3725 2735 c-19 -18 -25 -35 -25 -70 0 -63 31 -95 94 -95 56 0 86 32
86 92 0 84 -99 130 -155 73z"/>
</g>
</svg>
